<svg width="185" height="34" viewBox="0 0 185 34" fill="none" xmlns="http://www.w3.org/2000/svg">
<path d="M59.5229 3.56136C60.8926 3.82692 62.1101 4.17058 63.1754 4.62359L61.5166 10.7158C60.3447 10.3565 59.2033 10.091 58.1076 9.88789C57.0119 9.68482 55.9618 9.57547 54.9574 9.57547C53.4203 9.57547 52.3854 9.80978 51.8527 10.2472C51.3201 10.7002 51.0614 11.2625 51.0614 11.9499C51.0614 12.481 51.3201 12.9184 51.8527 13.2308C52.3854 13.5745 53.0398 13.9025 53.816 14.2149C54.5921 14.5274 55.4443 14.871 56.3575 15.2147C57.2706 15.574 58.1228 16.0114 58.899 16.5893C59.6903 17.1517 60.3295 17.8546 60.8622 18.6982C61.3796 19.5261 61.6535 20.6039 61.6535 21.9005C61.6535 23.5095 61.3492 24.9622 60.7556 26.2432C60.1621 27.5397 59.3251 28.6332 58.2446 29.5392C57.1641 30.4608 55.8857 31.1638 54.4095 31.648C52.9333 32.1323 51.3201 32.3822 49.6004 32.3822C47.9872 32.3822 46.4501 32.1948 45.0196 31.8511C43.589 31.5075 42.265 30.992 41.1084 30.3515L42.8585 24.1031C44.0304 24.7435 45.2326 25.2278 46.4654 25.5715C47.6981 25.9151 48.9916 26.0869 50.3309 26.0869C52.8115 26.0869 54.0595 25.2434 54.0595 23.5407C54.0595 22.994 53.8007 22.5253 53.2681 22.1817C52.7506 21.8224 52.081 21.4943 51.3049 21.1819C50.5287 20.8695 49.6765 20.5258 48.7786 20.1666C47.8807 19.8073 47.0437 19.3386 46.2523 18.7763C45.4761 18.2139 44.8217 17.511 44.2891 16.6518C43.7717 15.8083 43.5129 14.7304 43.5129 13.4183C43.5129 12.1061 43.7564 10.7627 44.2434 9.52861C44.7304 8.27892 45.4761 7.18544 46.4654 6.24818C47.4546 5.31091 48.7025 4.54549 50.1787 3.98313C51.6701 3.42077 53.405 3.13959 55.3835 3.13959C56.7531 3.13959 58.1228 3.26455 59.5077 3.51449" fill="#0B2265"/>
<path d="M87.8281 24.3357C87.0976 26.179 86.1388 27.6942 84.9517 28.8814C83.7647 30.0686 82.3494 30.959 80.6905 31.537C79.0317 32.115 77.0989 32.4118 74.8618 32.4118C71.1332 32.4118 68.3787 31.537 66.6133 29.8187C64.8632 28.0847 63.9805 25.4135 63.9805 21.8051C63.9805 21.1802 63.9957 20.5398 64.0413 19.8681C64.0718 19.1964 64.1631 18.509 64.2848 17.7905C64.6197 15.3067 65.1675 13.151 65.898 11.3233C66.6285 9.48005 67.5873 7.96481 68.7743 6.76199C69.9614 5.55916 71.3919 4.66877 73.066 4.09079C74.74 3.51281 76.6728 3.216 78.8643 3.216C82.6233 3.216 85.3779 4.07516 87.128 5.77786C88.8781 7.49618 89.7456 10.1049 89.7456 13.6665C89.7456 14.2913 89.7304 14.963 89.6695 15.6504C89.6239 16.3377 89.5478 17.0407 89.4565 17.7748C89.1216 20.3055 88.589 22.4924 87.8433 24.3357M81.6036 15.4473C81.6645 14.7756 81.6949 14.1664 81.6949 13.604C81.6949 11.9794 81.3906 10.9016 80.7971 10.3392C80.2035 9.79248 79.26 9.51129 77.9512 9.51129C77.0989 9.51129 76.3684 9.62065 75.7749 9.83934C75.1814 10.0737 74.6639 10.4798 74.2378 11.089C73.8117 11.6826 73.4465 12.5262 73.1573 13.604C72.8682 14.6819 72.5942 16.0721 72.3507 17.7905C72.1377 19.4463 72.0159 20.821 72.0159 21.8832C72.0159 22.7111 72.092 23.414 72.2442 23.9608C72.3811 24.5075 72.6094 24.9449 72.8986 25.273C73.203 25.601 73.5682 25.8353 74.04 25.9603C74.5118 26.0853 75.0596 26.1477 75.6988 26.1477C76.5511 26.1477 77.2815 26.0384 77.8903 25.7885C78.499 25.5541 79.0165 25.1324 79.4578 24.5075C79.8992 23.8983 80.2644 23.0391 80.5535 21.9769C80.8427 20.8991 81.1014 19.5088 81.3297 17.8061C81.4515 16.9313 81.5428 16.1502 81.6036 15.4785" fill="#0B2265"/>
<path d="M108.435 31.8697H90.4463L94.2966 3.67365H102.058L99.06 25.4807H109.47L108.435 31.8697Z" fill="#0B2265"/>
<path d="M127.201 32.0241C125.663 32.274 124.157 32.399 122.665 32.399C120.565 32.399 118.769 32.1647 117.278 31.6961C115.787 31.2274 114.569 30.5401 113.626 29.6497C112.682 28.7437 111.997 27.619 111.556 26.2912C111.114 24.9477 110.901 23.4013 110.901 21.6517C110.901 21.0581 110.932 20.4333 110.977 19.7928C111.023 19.1523 111.099 18.4806 111.191 17.7777C111.86 12.9664 113.428 9.32667 115.939 6.87417C118.435 4.40604 122.102 3.18759 126.911 3.18759C128.235 3.18759 129.559 3.29694 130.914 3.51563C132.253 3.71871 133.455 4.03113 134.505 4.43728L132.968 10.6701C132.04 10.3108 130.99 10.014 129.833 9.81093C128.677 9.60786 127.566 9.51412 126.516 9.51412C125.268 9.51412 124.233 9.6391 123.396 9.88903C122.574 10.139 121.874 10.5764 121.341 11.2012C120.809 11.826 120.383 12.6696 120.063 13.7162C119.743 14.7628 119.469 16.0906 119.256 17.6996C119.028 19.2461 118.922 20.5426 118.922 21.5736C118.922 22.4484 118.998 23.1826 119.18 23.7762C119.348 24.3541 119.622 24.8228 119.972 25.1664C120.322 25.4945 120.763 25.7444 121.326 25.8694C121.874 26.01 122.544 26.0725 123.32 26.0725C123.594 26.0725 123.868 26.0568 124.142 26.0412C124.416 26.01 124.72 25.9787 125.009 25.9319L126.287 16.5905H133.09L131.112 30.9931C130.046 31.4149 128.738 31.7585 127.185 32.0085" fill="#0B2265"/>
<path d="M143.178 26.771L141.2 31.8791H133.058L145.993 3.68307H155.231L160.649 31.8791H152.035L151.487 26.771H143.178ZM149.387 10.6345C149.296 10.8531 149.22 11.0875 149.113 11.353L145.415 20.9287H150.833L149.798 11.4468C149.752 11.1031 149.722 10.8063 149.707 10.5876C149.707 10.3689 149.692 10.1346 149.692 9.90026H149.615C149.539 10.1502 149.463 10.4001 149.372 10.6188" fill="#0B2265"/>
<path d="M180.554 3.56114C181.939 3.8267 183.157 4.17037 184.207 4.62338L182.548 10.7156C181.376 10.3563 180.25 10.0908 179.139 9.88768C178.043 9.6846 176.993 9.57525 175.989 9.57525C174.452 9.57525 173.417 9.80957 172.884 10.247C172.367 10.7 172.093 11.2623 172.093 11.9497C172.093 12.4808 172.352 12.9182 172.884 13.2306C173.417 13.5743 174.071 13.9023 174.847 14.2147C175.624 14.5271 176.476 14.8708 177.389 15.2145C178.302 15.5737 179.154 16.0111 179.93 16.5891C180.707 17.1515 181.361 17.8544 181.878 18.698C182.411 19.5259 182.67 20.6037 182.67 21.9003C182.67 23.5093 182.365 24.962 181.772 26.2429C181.178 27.5395 180.341 28.633 179.261 29.539C178.18 30.4606 176.917 31.1636 175.426 31.6478C173.949 32.1321 172.336 32.382 170.601 32.382C168.988 32.382 167.466 32.1946 166.036 31.8509C164.59 31.5072 163.296 30.9917 162.109 30.3513L163.875 24.1029C165.047 24.7433 166.249 25.2276 167.482 25.5712C168.714 25.9149 170.008 26.0867 171.347 26.0867C173.828 26.0867 175.076 25.2432 175.076 23.5405C175.076 22.9938 174.817 22.5251 174.284 22.1815C173.752 21.8222 173.112 21.4941 172.321 21.1817C171.545 20.8693 170.693 20.5256 169.795 20.1663C168.882 19.8071 168.06 19.3384 167.269 18.7761C166.492 18.2137 165.838 17.5108 165.305 16.6516C164.788 15.8081 164.514 14.7302 164.514 13.418C164.514 12.1059 164.757 10.7625 165.244 9.52839C165.731 8.27871 166.477 7.18523 167.466 6.24796C168.456 5.3107 169.703 4.54527 171.18 3.98291C172.671 3.42055 174.406 3.13937 176.384 3.13937C177.754 3.13937 179.124 3.26434 180.509 3.51428" fill="#0B2265"/>
<path d="M17.2648 19.9623C13.3071 29.8191 7.76823 29.5995 3.51465 27.2582C8.74748 34.3764 18.5603 36.122 25.8536 31.0838C32.9021 26.2129 35.0646 16.7429 31.1884 9.20656C30.8926 8.64212 29.6074 7.21011 27.5163 7.21011C24.7826 7.23102 21.243 10.0428 17.2546 19.9623" fill="#FF5100"/>
<path d="M17.2648 19.9623C13.3071 29.8191 7.76823 29.5995 3.51465 27.2582C8.74748 34.3764 18.5603 36.122 25.8536 31.0838C32.9021 26.2129 35.0646 16.7429 31.1884 9.20656C30.8926 8.64212 29.6074 7.21011 27.5163 7.21011C24.7826 7.23102 21.243 10.0428 17.2546 19.9623" fill="url(#paint0_linear_1372_14463)" fill-opacity="0.7"/>
<path d="M17.2648 19.9623C13.3071 29.8191 7.76823 29.5995 3.51465 27.2582C8.74748 34.3764 18.5603 36.122 25.8536 31.0838C32.9021 26.2129 35.0646 16.7429 31.1884 9.20656C30.8926 8.64212 29.6074 7.21011 27.5163 7.21011C24.7826 7.23102 21.243 10.0428 17.2546 19.9623" fill="url(#paint1_linear_1372_14463)" fill-opacity="0.7"/>
<path d="M17.13 6.19374C17.13 6.19374 7.98016 11.1378 7.29673 11.5664C-4.32158 18.7264 3.34916 27.0675 3.34916 27.0675C1.56408 24.977 2.70653 22.3952 4.45081 20.9946C6.79691 19.1236 11.2749 17.1271 13.3048 16.1969C17.9664 14.075 20.7613 9.95667 20.1697 3.78964C19.3231 4.74083 18.303 5.55613 17.13 6.19374Z" fill="url(#paint2_linear_1372_14463)"/>
<path d="M0.280547 13.787C-0.015266 15.3758 -0.0662682 16.9541 0.076538 18.4906C2.87146 7.99623 13.1229 1.27522 23.7518 3.31347C25.088 3.57478 26.3631 3.95108 27.5769 4.44235C25.394 2.38319 22.6297 0.898922 19.488 0.292672C18.4679 0.0940733 17.4479 0 16.438 0C8.67551 0.0104526 1.75961 5.67575 0.280547 13.787Z" fill="url(#paint3_linear_1372_14463)"/>
<defs>
<linearGradient id="paint0_linear_1372_14463" x1="28.7265" y1="1.00627" x2="13.8469" y2="37.2579" gradientUnits="userSpaceOnUse">
<stop stop-color="#EAD436" stop-opacity="0"/>
<stop offset="0.447966" stop-color="#EBD935"/>
<stop offset="1" stop-color="#EAD436" stop-opacity="0"/>
</linearGradient>
<linearGradient id="paint1_linear_1372_14463" x1="14.458" y1="36.6012" x2="16.5224" y2="22.9021" gradientUnits="userSpaceOnUse">
<stop stop-color="#FF60B3"/>
<stop offset="1" stop-color="#E51B84" stop-opacity="0"/>
</linearGradient>
<linearGradient id="paint2_linear_1372_14463" x1="2.35216" y1="26.4143" x2="20.7909" y2="4.26795" gradientUnits="userSpaceOnUse">
<stop stop-color="#2C6AA9"/>
<stop offset="0.324667" stop-color="#1D91C9"/>
<stop offset="0.692421" stop-color="#73AF4E"/>
<stop offset="1" stop-color="#BBC235"/>
</linearGradient>
<linearGradient id="paint3_linear_1372_14463" x1="0.582563" y1="16.6378" x2="27.7772" y2="4.24023" gradientUnits="userSpaceOnUse">
<stop stop-color="#FD5170"/>
<stop offset="0.723266" stop-color="#ECBF36"/>
<stop offset="1" stop-color="#EDAE2E"/>
</linearGradient>
</defs>
</svg>
