<svg width="141" height="25" viewBox="0 0 141 25" fill="none" xmlns="http://www.w3.org/2000/svg">
<path d="M45.5042 2.64829C46.5513 2.83988 47.4821 3.08782 48.2965 3.41465L47.0283 7.80997C46.1325 7.55076 45.2599 7.35917 44.4223 7.21266C43.5846 7.06615 42.7818 6.98726 42.014 6.98726C40.8389 6.98726 40.0478 7.15631 39.6406 7.47187C39.2334 7.7987 39.0356 8.20442 39.0356 8.7003C39.0356 9.08349 39.2334 9.39905 39.6406 9.62445C40.0478 9.87239 40.548 10.1091 41.1414 10.3345C41.7347 10.5599 42.3863 10.8078 43.0843 11.0557C43.7824 11.315 44.4339 11.6305 45.0272 12.0475C45.6322 12.4532 46.1209 12.9604 46.5281 13.569C46.9236 14.1663 47.133 14.9439 47.133 15.8793C47.133 17.0401 46.9004 18.0883 46.4466 19.0124C45.9929 19.9478 45.353 20.7367 44.527 21.3904C43.7009 22.0553 42.7237 22.5625 41.5951 22.9118C40.4666 23.2612 39.2334 23.4415 37.9187 23.4415C36.6855 23.4415 35.5104 23.3063 34.4168 23.0584C33.3232 22.8104 32.311 22.4385 31.4268 21.9764L32.7647 17.4684C33.6605 17.9305 34.5797 18.2799 35.522 18.5278C36.4644 18.7757 37.4533 18.8997 38.4771 18.8997C40.3735 18.8997 41.3275 18.2911 41.3275 17.0627C41.3275 16.6682 41.1298 16.3301 40.7226 16.0822C40.327 15.823 39.8151 15.5863 39.2217 15.3609C38.6284 15.1355 37.9769 14.8876 37.2904 14.6283C36.604 14.3691 35.9641 14.031 35.3591 13.6253C34.7658 13.2196 34.2655 12.7124 33.8583 12.0926C33.4628 11.484 33.265 10.7064 33.265 9.75969C33.265 8.813 33.4511 7.84378 33.8234 6.95345C34.1957 6.05184 34.7658 5.26294 35.522 4.58673C36.2783 3.91053 37.2323 3.3583 38.3608 2.95258C39.501 2.54686 40.8273 2.34399 42.3397 2.34399C43.3868 2.34399 44.4339 2.43415 45.4926 2.61447" fill="white"/>
<path d="M67.143 17.6364C66.5846 18.9663 65.8516 20.0595 64.9442 20.916C64.0367 21.7725 62.9547 22.4149 61.6866 22.8319C60.4184 23.2489 58.9409 23.463 57.2306 23.463C54.3802 23.463 52.2744 22.8319 50.9248 21.5922C49.5869 20.3412 48.9121 18.414 48.9121 15.8107C48.9121 15.3599 48.9237 14.8978 48.9586 14.4132C48.9819 13.9286 49.0517 13.4327 49.1448 12.9143C49.4008 11.1223 49.8196 9.56704 50.378 8.24845C50.9365 6.91858 51.6694 5.82539 52.5769 4.95759C53.4844 4.0898 54.578 3.44741 55.8578 3.03042C57.1376 2.61342 58.6151 2.39929 60.2904 2.39929C63.1641 2.39929 65.2699 3.01914 66.6079 4.24758C67.9458 5.48729 68.609 7.36938 68.609 9.93896C68.609 10.3898 68.5973 10.8744 68.5508 11.3703C68.5159 11.8661 68.4577 12.3733 68.3879 12.903C68.132 14.7287 67.7247 16.3065 67.1547 17.6364M62.3846 11.2237C62.4312 10.7391 62.4544 10.2996 62.4544 9.89388C62.4544 8.72179 62.2217 7.94416 61.768 7.53844C61.3143 7.14399 60.5929 6.94112 59.5924 6.94112C58.9409 6.94112 58.3824 7.02002 57.9287 7.1778C57.4749 7.34685 57.0794 7.63987 56.7536 8.0794C56.4279 8.50766 56.1486 9.11624 55.9276 9.89388C55.7065 10.6715 55.4971 11.6745 55.311 12.9143C55.1481 14.1089 55.055 15.1006 55.055 15.867C55.055 16.4643 55.1132 16.9715 55.2295 17.3659C55.3342 17.7604 55.5087 18.0759 55.7298 18.3126C55.9625 18.5493 56.2417 18.7183 56.6024 18.8085C56.963 18.8986 57.3819 18.9437 57.8705 18.9437C58.522 18.9437 59.0805 18.8648 59.5458 18.6845C60.0112 18.5155 60.4068 18.2112 60.7442 17.7604C61.0816 17.3208 61.3608 16.701 61.5818 15.9346C61.8029 15.157 62.0007 14.154 62.1752 12.9255C62.2683 12.2944 62.3381 11.7309 62.3846 11.2463" fill="white"/>
<path d="M82.8958 23.0717H69.144L72.0875 2.72925H78.021L75.7291 18.4622H83.6869L82.8958 23.0717Z" fill="white"/>
<path d="M97.2421 23.1834C96.067 23.3637 94.9152 23.4539 93.775 23.4539C92.1695 23.4539 90.7967 23.2849 89.6565 22.9468C88.5163 22.6087 87.5856 22.1128 86.8643 21.4704C86.143 20.8167 85.6194 20.0053 85.282 19.0473C84.9446 18.0781 84.7817 16.9624 84.7817 15.7001C84.7817 15.2718 84.805 14.821 84.8399 14.359C84.8748 13.8969 84.933 13.4123 85.0028 12.9051C85.5147 9.43396 86.713 6.80804 88.6327 5.03864C90.5407 3.25797 93.3446 2.37891 97.021 2.37891C98.0332 2.37891 99.0454 2.4578 100.081 2.61558C101.105 2.76209 102.024 2.98749 102.827 3.28051L101.651 7.77726C100.942 7.51805 100.139 7.30392 99.2548 7.15741C98.3706 7.0109 97.5213 6.94328 96.7185 6.94328C95.7645 6.94328 94.9734 7.03344 94.3335 7.21376C93.7052 7.39408 93.1701 7.70964 92.7629 8.16044C92.3557 8.61125 92.0299 9.21983 91.7856 9.97492C91.5413 10.73 91.3318 11.688 91.169 12.8488C90.9944 13.9645 90.913 14.8999 90.913 15.6438C90.913 16.2749 90.9712 16.8046 91.1108 17.2328C91.2388 17.6498 91.4482 17.9879 91.7158 18.2359C91.9834 18.4725 92.3208 18.6529 92.7512 18.743C93.1701 18.8445 93.682 18.8895 94.2753 18.8895C94.4847 18.8895 94.6942 18.8783 94.9036 18.867C95.113 18.8445 95.3457 18.8219 95.5667 18.7881L96.544 12.0486H101.745L100.232 22.4396C99.4177 22.7439 98.4171 22.9918 97.2304 23.1722" fill="white"/>
<path d="M109.457 19.3932L107.944 23.0785H101.72L111.609 2.73608H118.671L122.813 23.0785H116.228L115.809 19.3932H109.457ZM114.203 7.75126C114.134 7.90904 114.075 8.07809 113.994 8.26968L111.167 15.1782H115.309L114.517 8.3373C114.483 8.08936 114.459 7.87523 114.448 7.71745C114.448 7.55967 114.436 7.39061 114.436 7.22156H114.378C114.32 7.40189 114.261 7.58221 114.192 7.73999" fill="white"/>
<path d="M138.03 2.64816C139.089 2.83975 140.02 3.0877 140.823 3.41453L139.555 7.80985C138.659 7.55063 137.798 7.35905 136.948 7.21253C136.111 7.06602 135.308 6.98713 134.54 6.98713C133.365 6.98713 132.574 7.15618 132.167 7.47175C131.771 7.79858 131.562 8.2043 131.562 8.70018C131.562 9.08336 131.76 9.39892 132.167 9.62433C132.574 9.87227 133.074 10.1089 133.668 10.3343C134.261 10.5597 134.912 10.8077 135.611 11.0556C136.309 11.3148 136.96 11.6304 137.553 12.0474C138.147 12.4531 138.647 12.9603 139.043 13.5688C139.45 14.1662 139.648 14.9438 139.648 15.8792C139.648 17.04 139.415 18.0881 138.961 19.0123C138.507 19.9477 137.868 20.7366 137.042 21.3903C136.216 22.0552 135.25 22.5623 134.11 22.9117C132.981 23.2611 131.748 23.4414 130.422 23.4414C129.188 23.4414 128.025 23.3062 126.931 23.0582C125.826 22.8103 124.837 22.4384 123.93 21.9763L125.279 17.4683C126.175 17.9304 127.094 18.2797 128.037 18.5277C128.979 18.7756 129.968 18.8996 130.992 18.8996C132.888 18.8996 133.842 18.291 133.842 17.0626C133.842 16.6681 133.644 16.33 133.237 16.0821C132.83 15.8229 132.341 15.5862 131.736 15.3608C131.143 15.1354 130.491 14.8874 129.805 14.6282C129.107 14.369 128.479 14.0309 127.874 13.6252C127.28 13.2195 126.78 12.7123 126.373 12.0925C125.977 11.4839 125.768 10.7062 125.768 9.75956C125.768 8.81288 125.954 7.84366 126.326 6.95332C126.699 6.05172 127.269 5.26281 128.025 4.58661C128.781 3.91041 129.735 3.35818 130.864 2.95246C132.004 2.54673 133.33 2.34387 134.843 2.34387C135.89 2.34387 136.937 2.43403 137.996 2.61435" fill="white"/>
<path d="M13.1982 14.481C10.1726 21.5923 5.93829 21.4339 2.68652 19.7447C6.6869 24.8803 14.1886 26.1396 19.7641 22.5048C25.1526 18.9906 26.8057 12.1583 23.8425 6.72113C23.6164 6.3139 22.6338 5.28076 21.0352 5.28076C18.9454 5.29584 16.2395 7.32442 13.1904 14.481" fill="#FF5100"/>
<path d="M13.1982 14.481C10.1726 21.5923 5.93829 21.4339 2.68652 19.7447C6.6869 24.8803 14.1886 26.1396 19.7641 22.5048C25.1526 18.9906 26.8057 12.1583 23.8425 6.72113C23.6164 6.3139 22.6338 5.28076 21.0352 5.28076C18.9454 5.29584 16.2395 7.32442 13.1904 14.481" fill="url(#paint0_linear_616_2087)" fill-opacity="0.7"/>
<path d="M13.1982 14.481C10.1726 21.5923 5.93829 21.4339 2.68652 19.7447C6.6869 24.8803 14.1886 26.1396 19.7641 22.5048C25.1526 18.9906 26.8057 12.1583 23.8425 6.72113C23.6164 6.3139 22.6338 5.28076 21.0352 5.28076C18.9454 5.29584 16.2395 7.32442 13.1904 14.481" fill="url(#paint1_linear_616_2087)" fill-opacity="0.7"/>
<path d="M13.0956 4.54758C13.0956 4.54758 6.10082 8.11455 5.57835 8.42374C-3.30358 13.5894 2.56052 19.6073 2.56052 19.6073C1.19587 18.0991 2.06925 16.2364 3.40271 15.2259C5.19625 13.876 8.61957 12.4356 10.1714 11.7645C13.7351 10.2336 15.8717 7.2624 15.4194 2.81311C14.7722 3.49936 13.9924 4.08757 13.0956 4.54758Z" fill="url(#paint2_linear_616_2087)"/>
<path d="M0.214472 10.0258C-0.0116705 11.172 -0.0506605 12.3108 0.0585116 13.4193C2.19516 5.84798 10.0322 0.999002 18.1577 2.46953C19.1792 2.65806 20.154 2.92954 21.0819 3.28398C19.4132 1.79837 17.2999 0.72752 14.8981 0.290132C14.1183 0.14685 13.3385 0.0789795 12.5665 0.0789795C6.63223 0.0865207 1.34518 4.17384 0.214472 10.0258Z" fill="url(#paint3_linear_616_2087)"/>
<defs>
<linearGradient id="paint0_linear_616_2087" x1="21.9604" y1="0.804909" x2="11.667" y2="27.3782" gradientUnits="userSpaceOnUse">
<stop stop-color="#EAD436" stop-opacity="0"/>
<stop offset="0.447966" stop-color="#EBD935"/>
<stop offset="1" stop-color="#EAD436" stop-opacity="0"/>
</linearGradient>
<linearGradient id="paint1_linear_616_2087" x1="11.0525" y1="26.4854" x2="12.4615" y2="16.5779" gradientUnits="userSpaceOnUse">
<stop stop-color="#FF60B3"/>
<stop offset="1" stop-color="#E51B84" stop-opacity="0"/>
</linearGradient>
<linearGradient id="paint2_linear_616_2087" x1="1.79834" y1="19.136" x2="14.9412" y2="2.40929" gradientUnits="userSpaceOnUse">
<stop stop-color="#2C6AA9"/>
<stop offset="0.324667" stop-color="#1D91C9"/>
<stop offset="0.692421" stop-color="#73AF4E"/>
<stop offset="1" stop-color="#BBC235"/>
</linearGradient>
<linearGradient id="paint3_linear_616_2087" x1="0.445356" y1="12.0826" x2="20.8049" y2="2.24767" gradientUnits="userSpaceOnUse">
<stop stop-color="#FD5170"/>
<stop offset="0.723266" stop-color="#ECBF36"/>
<stop offset="1" stop-color="#EDAE2E"/>
</linearGradient>
</defs>
</svg>
